<svg xmlns="http://www.w3.org/2000/svg" viewBox="0 0 192 192" width="192" height="192">
	<style>
		tspan { white-space:pre }
		.shp0 { fill: #0c076f } 
		.shp1 { fill: #ffffff } 
	</style>
	<path id="Color Fill 1" class="shp0" d="M50 70.03L50 150.03L150 150.03L150 70.03L100 35.03L50 70.03Z" />
	<path id="Color Fill 2" class="shp1" d="M77 93L77 108L99 108L99 93L77 93ZM77 93L77 108L99 108L99 93L77 93ZM77 93L77 108L99 108L99 93L77 93Z" />
	<path id="Color Fill 3" class="shp1" d="M101 93L123 93L123 108L101 108L101 93ZM99 112.22L77 112.22L77 128L99 128" />
	<path id="Color Fill 4" class="shp1" d="M101 112.22L123 112.22L123 128L101 128L101 112.22Z" />
</svg>